:SAMPLES-PER-SECOND 30
:FULLY-SPECIFIED
:DEGREES
185
root  66.759 18.0239 2.85253 -151.468 76.2957 169.897
RightUpLeg  -62.9041 -4.62523 16.0985
RightLeg  125.253 0.421648 15.3658
RightFoot  15.547 0.486991 -1.92584
RightToes  1.16415e-010 -3.18055e-015 8.94531e-016
Spine  50.7266 -4.69405 5.74651
Spine1  -7.53063 -2.88215 11.5806
HEad  -28.6047 4.92795 -9.49643
LeftShoulder1  0 -2.69403e-036 -1.28585e-037
LeftArm  4.91954 -53.994 -88.2195
LeftForeArm  14.987 -9.31983 5.00363
LeftHand  -2.06152 0.703616 33.5151
RightShoulder  -2.48481e-017 0 -8.08114e-019
RightArm  13.1515 15.637 92.0361
RightForeArm  17.5691 16.0328 -8.93037
RightHand  9.38125 -21.7688 -47.1245
LeftUpLeg  -12.9173 -18.7155 10.021
LeftLeg  77.3792 -17.9241 -23.7721
LeftFoot  19.4376 1.6946 -5.53903
LeftToes  4.502e-010 -1.85808e-011 5.37561e-011
186
root  67.8315 18.0334 2.97284 -139.548 76.1505 -179.064
RightUpLeg  -59.5773 -2.4296 18.9008
RightLeg  122.148 1.19491 15.9687
RightFoot  14.8666 0.222412 -0.911556
RightToes  1.16415e-010 -3.18055e-015 8.94531e-016
Spine  50.6381 -3.34948 8.86216
Spine1  -8.78226 0.324921 9.60031
HEad  -26.9741 2.08579 -8.58997
LeftShoulder1  0 -2.69403e-036 -1.28585e-037
LeftArm  9.33398 -51.7127 -94.9718
LeftForeArm  16.3323 -9.29771 3.56917
LeftHand  -2.33107 0.477504 35.7553
RightShoulder  -2.48481e-017 0 -8.08114e-019
RightArm  23.8468 7.98796 88.1872
RightForeArm  3.09416 19.8619 -19.3418
RightHand  8.69672 -21.1618 -45.1877
LeftUpLeg  -11.2948 -16.9189 13.1109
LeftLeg  73.3125 -19.744 -24.1524
LeftFoot  22.5377 2.01001 -5.97581
LeftToes  4.502e-010 -1.85808e-011 5.37561e-011
187
root  68.8622 18.1074 3.05399 -127.703 76.8151 -168.293
RightUpLeg  -57.4406 0.0423485 20.3476
RightLeg  119.954 1.98851 16.0112
RightFoot  13.4744 0.0397695 -0.184998
RightToes  1.16415e-010 -3.18055e-015 8.94531e-016
Spine  50.7873 -1.7717 10.8977
Spine1  -9.64154 3.31467 6.60345
HEad  -23.3819 1.42644 -7.75358
LeftShoulder1  0 -2.69403e-036 -1.28585e-037
LeftArm  12.1508 -49.497 -99.7828
LeftForeArm  17.9352 -10.5445 3.07596
LeftHand  -2.53681 0.328778 37.5123
RightShoulder  -2.48481e-017 0 -8.08114e-019
RightArm  20.2432 2.02874 84.8833
RightForeArm  1.06377 24.3958 -26.0635
RightHand  8.04613 -20.6178 -43.0416
LeftUpLeg  -9.96489 -14.9424 14.5216
LeftLeg  69.3953 -21.3627 -23.9857
LeftFoot  26.4631 2.29031 -6.08744
LeftToes  4.502e-010 -1.85808e-011 5.37561e-011
188
root  69.7786 18.1867 3.11195 -120.184 77.3856 -162.269
RightUpLeg  -56.5447 1.69616 20.2394
RightLeg  118.67 2.41252 16.0808
RightFoot  11.3141 -0.0519226 0.225604
RightToes  1.16415e-010 -3.18055e-015 8.94531e-016
Spine  51.0802 -1.16148 11.7483
Spine1  -11.0469 4.64753 3.99194
HEad  -16.4263 5.39788 -8.02517
LeftShoulder1  0 -2.69403e-036 -1.28585e-037
LeftArm  13.5072 -47.0957 -101.132
LeftForeArm  18.2199 -12.9824 3.59881
LeftHand  -2.66743 0.204344 38.382
RightShoulder  -2.48481e-017 0 -8.08114e-019
RightArm  12.5843 -0.205042 83.0912
RightForeArm  3.86944 30.1699 -29.8558
RightHand  7.48367 -20.0859 -41.2076
LeftUpLeg  -10.0729 -14.1622 14.4655
LeftLeg  66.2995 -21.9753 -22.5433
LeftFoot  31.3225 2.61379 -6.10406
LeftToes  4.502e-010 -1.85808e-011 5.37561e-011
189
root  70.5863 18.3012 3.19141 -120.809 77.5839 -164.445
RightUpLeg  -55.9093 2.0855 18.968
RightLeg  117.399 2.49236 16.7591
RightFoot  9.02942 -0.041928 0.194887
RightToes  1.16415e-010 -3.18055e-015 8.94531e-016
Spine  51.7309 -1.90549 11.8062
Spine1  -13.7057 4.08532 2.17243
HEad  -6.80119 10.8687 -7.48343
LeftShoulder1  0 -2.69403e-036 -1.28585e-037
LeftArm  15.1207 -44.4481 -100.113
LeftForeArm  16.8903 -14.8582 4.00305
LeftHand  -2.7769 0.0836221 38.9754
RightShoulder  -2.48481e-017 0 -8.08114e-019
RightArm  9.70083 1.55572 82.6367
RightForeArm  4.5577 33.8276 -32.8871
RightHand  7.07156 -19.6328 -39.972
LeftUpLeg  -11.7764 -14.1696 13.7587
LeftLeg  64.7699 -21.0179 -19.5752
LeftFoot  34.814 2.93103 -6.29891
LeftToes  4.502e-010 -1.85808e-011 5.37561e-011
190
root  71.361 18.5298 3.31228 -127.122 77.7633 -171.833
RightUpLeg  -54.6542 1.80248 17.1224
RightLeg  115.559 2.78796 17.4755
RightFoot  7.25422 0.043061 -0.256655
RightToes  1.16415e-010 -3.18055e-015 8.94531e-016
Spine  51.4282 -1.74849 11.3938
Spine1  -13.8936 3.99523 1.52446
HEad  4.19047 13.7216 -4.91254
LeftShoulder1  0 -2.69403e-036 -1.28585e-037
LeftArm  16.4127 -43.2142 -102.415
LeftForeArm  18.5496 -14.4914 3.66621
LeftHand  -2.92389 -0.0371421 39.9948
RightShoulder  -2.48481e-017 0 -8.08114e-019
RightArm  7.92184 7.35202 77.494
RightForeArm  3.31112 35.3975 -34.202
RightHand  6.98445 -19.5934 -39.5053
LeftUpLeg  -14.427 -13.4306 12.8914
LeftLeg  65.7829 -18.8233 -15.8264
LeftFoot  32.8566 2.8042 -6.3231
LeftToes  4.502e-010 -1.85808e-011 5.37561e-011
191
root  72.1236 18.8524 3.45485 -134.45 78.0919 -179.664
RightUpLeg  -52.7792 1.47079 15.3502
RightLeg  113.348 3.62008 17.3873
RightFoot  5.90416 0.0828653 -0.505218
RightToes  1.16415e-010 -3.18055e-015 8.94531e-016
Spine  47.9557 2.15137 10.7567
Spine1  -6.85046 6.95684 4.0958
HEad  13.8601 10.2057 -1.94634
LeftShoulder1  0 -2.69403e-036 -1.28585e-037
LeftArm  21.0713 -43.2925 -114.135
LeftForeArm  22.6452 -13.2167 5.19787
LeftHand  -3.0778 -0.156797 41.0718
RightShoulder  -2.48481e-017 0 -8.08114e-019
RightArm  4.82949 13.2074 61.9208
RightForeArm  -2.80463 37.3618 -35.6182
RightHand  6.81219 -19.4858 -38.6897
LeftUpLeg  -17.7021 -11.6568 12.0743
LeftLeg  69.8935 -16.4285 -12.4975
LeftFoot  25.1945 2.11848 -5.80003
LeftToes  4.502e-010 -1.85808e-011 5.37561e-011
192
root  72.8293 19.1596 3.59328 -140.797 78.2624 173.761
RightUpLeg  -50.697 1.0979 14.1262
RightLeg  111.075 4.63198 16.825
RightFoot  4.52928 0.0176065 -0.113944
RightToes  1.16415e-010 -3.18055e-015 8.94531e-016
Spine  42.2532 8.52276 10.193
Spine1  4.25929 11.2239 10.4915
HEad  20.1707 2.25389 0.367007
LeftShoulder1  0 -2.69403e-036 -1.28585e-037
LeftArm  31.106 -41.2125 -130.486
LeftForeArm  23.6731 -13.3729 9.65249
LeftHand  -3.19625 -0.28067 41.6721
RightShoulder  -2.48481e-017 0 -8.08114e-019
RightArm  -0.217365 19.3107 33.7665
RightForeArm  -15.8407 40.2132 -37.5731
RightHand  5.72562 -18.2017 -34.8063
LeftUpLeg  -21.8097 -9.96209 11.5534
LeftLeg  76.349 -14.5424 -9.85408
LeftFoot  17.7161 1.35207 -4.63725
LeftToes  4.502e-010 -1.85808e-011 5.37561e-011
193
root  73.4545 19.3849 3.71763 -145.961 78.1126 168.414
RightUpLeg  -48.6245 0.758688 13.383
RightLeg  108.776 5.3734 16.8363
RightFoot  3.26104 -0.0417923 0.281483
RightToes  1.16415e-010 -3.18055e-015 8.94531e-016
Spine  38.9123 12.4583 10.0996
Spine1  10.5546 13.6015 14.8154
HEad  23.8743 -3.1233 1.77967
LeftShoulder1  0 -2.69403e-036 -1.28585e-037
LeftArm  37.8213 -38.204 -139.94
LeftForeArm  23.4918 -13.8205 12.6962
LeftHand  -3.31309 -0.401669 42.245
RightShoulder  -2.48481e-017 0 -8.08114e-019
RightArm  -3.05585 23.2268 10.605
RightForeArm  -27.0036 39.6909 -36.1577
RightHand  4.30256 -16.5656 -29.1897
LeftUpLeg  -26.8032 -9.00969 11.3111
LeftLeg  83.8031 -13.3304 -7.95224
LeftFoot  15.6733 0.884751 -3.25358
LeftToes  4.502e-010 -1.85808e-011 5.37561e-011
194
root  74.0313 19.5261 3.8233 -149.717 78.1951 164.542
RightUpLeg  -46.5472 1.04268 12.7017
RightLeg  106.527 5.83404 17.6431
RightFoot  2.64086 0.0288879 -0.21659
RightToes  1.16415e-010 -3.18055e-015 8.94531e-016
Spine  39.3887 12.508 10.6139
Spine1  10.3379 14.3701 12.9631
HEad  27.3669 -3.59603 2.59712
LeftShoulder1  0 -2.69403e-036 -1.28585e-037
LeftArm  38.5032 -36.2394 -141.338
LeftForeArm  25.0622 -13.2405 12.3601
LeftHand  -3.45923 -0.504729 43.2287
RightShoulder  -2.48481e-017 0 -8.08114e-019
RightArm  -2.08863 27.7282 2.80156
RightForeArm  -33.1159 34.7328 -31.0831
RightHand  7.85618 -20.8084 -39.5316
LeftUpLeg  -32.2692 -8.28564 11.0183
LeftLeg  91.3499 -12.5562 -7.62479
LeftFoot  17.4376 0.740281 -2.49167
LeftToes  4.502e-010 -1.85808e-011 5.37561e-011
195
root  74.6419 19.5972 3.91423 -152.45 79.1431 161.867
RightUpLeg  -44.312 2.25982 11.804
RightLeg  104.442 6.27972 18.4956
RightFoot  2.61337 0.177289 -1.28565
RightToes  1.16415e-010 -3.18055e-015 8.94531e-016
Spine  41.0604 11.4742 11.096
Spine1  8.56383 14.8962 8.442
HEad  31.0264 -2.11854 3.57423
LeftShoulder1  0 -2.69403e-036 -1.28585e-037
LeftArm  37.6519 -34.8709 -140.03
LeftForeArm  27.0915 -12.3385 10.9707
LeftHand  -3.60021 -0.590937 44.232
RightShoulder  -2.48481e-017 0 -8.08114e-019
RightArm  0.723619 31.8602 1.00161
RightForeArm  -42.0019 29.1685 -26.2162
RightHand  18.6002 -26.6506 -69.0514
LeftUpLeg  -37.7997 -7.23985 10.3797
LeftLeg  98.4139 -11.6946 -8.78125
LeftFoot  18.1415 0.713261 -2.3334
LeftToes  4.502e-010 -1.85808e-011 5.37561e-011
196
root  75.3476 19.6141 4.00105 -155.183 80.7816 159.445
RightUpLeg  -41.6916 3.9099 10.8617
RightLeg  102.422 6.87185 18.849
RightFoot  2.61713 0.258291 -1.87452
RightToes  1.16415e-010 -3.18055e-015 8.94531e-016
Spine  42.3976 11.1019 10.9309
Spine1  7.85936 15.4895 4.74127
HEad  34.1716 -0.881548 4.12467
LeftShoulder1  0 -2.69403e-036 -1.28585e-037
LeftArm  36.7676 -33.7054 -138.806
LeftForeArm  29.1015 -11.6465 10.077
LeftHand  -3.70653 -0.660664 44.9382
RightShoulder  -2.48481e-017 0 -8.08114e-019
RightArm  4.62634 35.1812 -0.552643
RightForeArm  -68.4955 25.4117 -22.5382
RightHand  22.944 -21.7065 -101.363
LeftUpLeg  -43.3061 -6.1105 9.55826
LeftLeg  104.553 -10.6848 -9.87904
LeftFoot  16.2787 0.524862 -1.78953
LeftToes  4.502e-010 -1.85808e-011 5.37561e-011
197
root  76.1446 19.5883 4.08281 -157.188 82.5473 158.094
RightUpLeg  -38.4788 5.50168 10.3329
RightLeg  100.234 7.62214 18.7146
RightFoot  2.42634 0.223819 -1.64255
RightToes  1.16415e-010 -3.18055e-015 8.94531e-016
Spine  43.3016 11.2321 10.4738
Spine1  8.22373 16.0886 2.4198
HEad  36.8465 -0.174741 4.24048
LeftShoulder1  0 -2.69403e-036 -1.28585e-037
LeftArm  35.7067 -32.6803 -137.705
LeftForeArm  31.0523 -11.2784 9.6252
LeftHand  -3.80003 -0.710254 45.6147
RightShoulder  -2.48481e-017 0 -8.08114e-019
RightArm  6.64837 38.7026 -0.940766
RightForeArm  -118.983 23.7174 -19.0033
RightHand  3.02845 -7.66767 -119.268
LeftUpLeg  -48.6515 -5.24397 9.15232
LeftLeg  109.803 -9.75372 -10.3088
LeftFoot  13.5587 0.125039 -0.333165
LeftToes  4.502e-010 -1.85808e-011 5.37561e-011
